# Blender 3.6.2
# www.blender.org
mtllib ring_wall.mtl
g Outer_ring.001_Mesh
v 105.823097 -0.000000 -21.097116
v 108.000008 0.000000 20.000002
v 103.789734 -20.645063 -21.097116
v 105.924812 -21.069756 20.000002
v 97.767792 -40.496750 -21.097116
v 99.778984 -41.329811 20.000002
v 87.988693 -58.792168 -21.097116
v 89.798721 -60.001587 20.000002
v 74.828232 -74.828232 -21.097116
v 76.367531 -76.367531 20.000002
v 58.792168 -87.988693 -21.097116
v 60.001587 -89.798721 20.000002
v 40.496750 -97.767792 -21.097116
v 41.329811 -99.778984 20.000002
v 20.645063 -103.789734 -21.097116
v 21.069756 -105.924812 20.000002
v 0.000000 -105.823097 -21.097116
v 0.000000 -108.000008 20.000002
v -20.645063 -103.789734 -21.097116
v -21.069756 -105.924812 20.000002
v -40.496750 -97.767792 -21.097116
v -41.329811 -99.778984 20.000002
v -58.792168 -87.988693 -21.097116
v -60.001587 -89.798721 20.000002
v -74.828232 -74.828232 -21.097116
v -76.367531 -76.367531 20.000002
v -87.988693 -58.792168 -21.097116
v -89.798721 -60.001587 20.000002
v -97.767792 -40.496750 -21.097116
v -99.778984 -41.329811 20.000002
v -103.789734 -20.645063 -21.097116
v -105.924812 -21.069756 20.000002
v -105.823097 -0.000000 -21.097116
v -108.000008 0.000000 20.000002
v -103.789734 20.645063 -21.097116
v -105.924812 21.069756 20.000002
v -97.767792 40.496750 -21.097116
v -99.778984 41.329811 20.000002
v -87.988693 58.792168 -21.097116
v -89.798721 60.001587 20.000002
v -74.828232 74.828232 -21.097116
v -76.367531 76.367531 20.000002
v -58.792168 87.988693 -21.097116
v -60.001587 89.798721 20.000002
v -40.496750 97.767792 -21.097116
v -41.329811 99.778984 20.000002
v -20.645063 103.789734 -21.097116
v -21.069756 105.924812 20.000002
v 0.000000 105.823097 -21.097116
v 0.000000 108.000008 20.000002
v 20.645063 103.789734 -21.097116
v 21.069756 105.924812 20.000002
v 40.496750 97.767792 -21.097116
v 41.329811 99.778984 20.000002
v 58.792168 87.988693 -21.097116
v 60.001587 89.798721 20.000002
v 74.828232 74.828232 -21.097116
v 76.367531 76.367531 20.000002
v 87.988693 58.792168 -21.097116
v 89.798721 60.001587 20.000002
v 97.767792 40.496750 -21.097116
v 99.778984 41.329811 20.000002
v 103.789734 20.645063 -21.097116
v 105.924812 21.069756 20.000002
v 100.000000 0.000000 -20.000002
v 100.000000 0.000000 20.000002
v 98.078522 -19.509033 -20.000002
v 98.078522 -19.509033 20.000002
v 92.387947 -38.268345 -20.000002
v 92.387947 -38.268345 20.000002
v 83.146957 -55.557026 -20.000002
v 83.146957 -55.557026 20.000002
v 70.710678 -70.710678 -20.000002
v 70.710678 -70.710678 20.000002
v 55.557026 -83.146957 -20.000002
v 55.557026 -83.146957 20.000002
v 38.268345 -92.387947 -20.000002
v 38.268345 -92.387947 20.000002
v 19.509033 -98.078522 -20.000002
v 19.509033 -98.078522 20.000002
v 0.000000 -100.000000 -20.000002
v 0.000000 -100.000000 20.000002
v -19.509033 -98.078522 -20.000002
v -19.509033 -98.078522 20.000002
v -38.268345 -92.387947 -20.000002
v -38.268345 -92.387947 20.000002
v -55.557026 -83.146957 -20.000002
v -55.557026 -83.146957 20.000002
v -70.710678 -70.710678 -20.000002
v -70.710678 -70.710678 20.000002
v -83.146957 -55.557026 -20.000002
v -83.146957 -55.557026 20.000002
v -92.387947 -38.268345 -20.000002
v -92.387947 -38.268345 20.000002
v -98.078522 -19.509033 -20.000002
v -98.078522 -19.509033 20.000002
v -100.000000 0.000000 -20.000002
v -100.000000 0.000000 20.000002
v -98.078522 19.509033 -20.000002
v -98.078522 19.509033 20.000002
v -92.387947 38.268345 -20.000002
v -92.387947 38.268345 20.000002
v -83.146957 55.557026 -20.000002
v -83.146957 55.557026 20.000002
v -70.710678 70.710678 -20.000002
v -70.710678 70.710678 20.000002
v -55.557026 83.146957 -20.000002
v -55.557026 83.146957 20.000002
v -38.268345 92.387947 -20.000002
v -38.268345 92.387947 20.000002
v -19.509033 98.078522 -20.000002
v -19.509033 98.078522 20.000002
v 0.000000 100.000000 -20.000002
v 0.000000 100.000000 20.000002
v 19.509033 98.078522 -20.000002
v 19.509033 98.078522 20.000002
v 38.268345 92.387947 -20.000002
v 38.268345 92.387947 20.000002
v 55.557026 83.146957 -20.000002
v 55.557026 83.146957 20.000002
v 70.710678 70.710678 -20.000002
v 70.710678 70.710678 20.000002
v 83.146957 55.557026 -20.000002
v 83.146957 55.557026 20.000002
v 92.387947 38.268345 -20.000002
v 92.387947 38.268345 20.000002
v 98.078522 19.509033 -20.000002
v 98.078522 19.509033 20.000002
vn 0.9938 -0.0979 -0.0526
vn 0.9556 -0.2899 -0.0526
vn 0.8807 -0.4707 -0.0526
vn 0.7719 -0.6335 -0.0526
vn 0.6335 -0.7719 -0.0526
vn 0.4707 -0.8807 -0.0526
vn 0.2899 -0.9556 -0.0526
vn 0.0979 -0.9938 -0.0526
vn -0.0979 -0.9938 -0.0526
vn -0.2899 -0.9556 -0.0526
vn -0.4707 -0.8807 -0.0526
vn -0.6335 -0.7719 -0.0526
vn -0.7719 -0.6335 -0.0526
vn -0.8807 -0.4707 -0.0526
vn -0.9556 -0.2899 -0.0526
vn -0.9938 -0.0979 -0.0526
vn -0.9938 0.0979 -0.0526
vn -0.9556 0.2899 -0.0526
vn -0.8807 0.4707 -0.0526
vn -0.7719 0.6335 -0.0526
vn -0.6335 0.7719 -0.0526
vn -0.4707 0.8807 -0.0526
vn -0.2899 0.9556 -0.0526
vn -0.0979 0.9938 -0.0526
vn 0.0979 0.9938 -0.0526
vn 0.2899 0.9556 -0.0526
vn 0.4707 0.8807 -0.0526
vn 0.6335 0.7719 -0.0526
vn 0.7719 0.6335 -0.0526
vn 0.8807 0.4707 -0.0526
vn 0.9556 0.2899 -0.0526
vn 0.9938 0.0979 -0.0526
vn -0.0000 -0.0000 -1.0000
vn -0.9952 0.0980 -0.0000
vn -0.9569 0.2903 -0.0000
vn -0.8819 0.4714 -0.0000
vn -0.7730 0.6344 -0.0000
vn -0.6344 0.7730 -0.0000
vn -0.4714 0.8819 -0.0000
vn -0.2903 0.9569 -0.0000
vn -0.0980 0.9952 -0.0000
vn 0.0980 0.9952 -0.0000
vn 0.2903 0.9569 -0.0000
vn 0.4714 0.8819 -0.0000
vn 0.6344 0.7730 -0.0000
vn 0.7730 0.6344 -0.0000
vn 0.8819 0.4714 -0.0000
vn 0.9569 0.2903 -0.0000
vn 0.9952 0.0980 -0.0000
vn 0.9952 -0.0980 -0.0000
vn 0.9569 -0.2903 -0.0000
vn 0.8819 -0.4714 -0.0000
vn 0.7730 -0.6344 -0.0000
vn 0.6344 -0.7730 -0.0000
vn 0.4714 -0.8819 -0.0000
vn 0.2903 -0.9569 -0.0000
vn 0.0980 -0.9952 -0.0000
vn -0.0980 -0.9952 -0.0000
vn -0.2903 -0.9569 -0.0000
vn -0.4714 -0.8819 -0.0000
vn -0.6344 -0.7730 -0.0000
vn -0.7730 -0.6344 -0.0000
vn -0.8819 -0.4714 -0.0000
vn -0.9569 -0.2903 -0.0000
vn -0.9952 -0.0980 -0.0000
vn -0.0000 -0.0000 1.0000
vt 1.000000 1.000000
vt -0.002208 0.401921
vt 0.999181 0.400346
vt 1.000248 1.003150
vt -0.003125 0.397927
vt 0.998264 0.401077
vt 0.996528 0.403150
vt -0.002468 0.998425
vt -0.004861 0.400000
vt 1.003894 1.000000
vt -0.000992 0.405184
vt 1.003547 0.405184
vt 1.002567 1.000000
vt -0.009500 0.398809
vt 0.998189 0.400384
vt 0.998847 0.401190
vt -0.000149 0.998425
vt -0.004117 0.401190
vt 1.003063 1.000000
vt -0.006610 0.401228
vt 0.993204 0.404378
vt -0.000545 1.000000
vt 1.002000 0.403591
vt -0.000545 0.403591
vt 1.000016 1.005953
vt 0.006404 0.397241
vt 1.000016 0.405178
vt 1.002232 1.000000
vt -0.004638 0.398809
vt 1.003051 0.401959
vt 0.995059 0.405972
vt 0.005416 0.994047
vt -0.000537 0.400019
vt 0.997541 1.000000
vt 0.005914 0.402400
vt 0.997541 0.402400
vt 0.998039 0.998016
vt 0.002443 0.401606
vt 1.000023 0.403591
vt 1.001303 0.402035
vt -0.001315 1.000000
vt -0.000086 0.402035
vt 1.001897 1.000000
vt -0.003051 0.398425
vt 0.998338 0.400000
vt 1.000571 1.003150
vt 0.000410 0.397619
vt 1.003374 0.400768
vt 1.002393 1.001575
vt 0.001067 0.401650
vt 1.004031 0.407950
vt 1.001066 1.001575
vt -0.001488 0.400038
vt 1.001476 0.403187
vt 1.001027 0.405972
vt 0.001463 1.000000
vt -0.000521 0.402003
vt 1.003137 1.007874
vt -0.002914 0.395622
vt 1.000050 0.401921
vt 0.996071 1.000000
vt -0.001510 0.404384
vt 0.996071 0.400416
vt 1.004506 0.403194
vt 0.000973 1.001984
vt 0.002957 0.403194
vt 0.997067 1.005953
vt 0.009408 0.394860
vt 1.003019 0.402797
vt 1.002555 1.004725
vt -0.000756 0.401613
vt 1.002208 0.401613
vt 0.999653 1.001575
vt -0.009264 0.404340
vt 0.996850 0.402765
vt 1.006201 1.001575
vt -0.003882 0.404340
vt 1.005382 0.404340
vt 0.995090 0.402003
vt 0.005447 1.000000
vt -0.000506 0.403987
vt 0.999557 0.996031
vt -0.000008 0.398035
vt 0.997572 0.404384
vt 1.003795 1.001575
vt -0.006225 0.401190
vt 1.003039 0.404340
vt 0.999318 0.400384
vt 0.001079 1.000000
vt 0.002654 0.398809
vt 0.997991 1.001575
vt 0.002902 0.400731
vt 1.001141 0.402306
vt 1.001389 1.001575
vt -0.007937 0.398003
vt 0.993452 0.399578
vt 0.872431 0.270951
vt 0.558173 0.101614
vt 0.087852 0.214761
vt 0.998921 1.001575
vt 1.002815 0.998425
vt 1.001012 1.000000
vt 1.000075 1.000000
vt 1.003012 1.003968
vt 1.002521 1.001984
vt 1.001043 0.998016
vt 0.997743 1.001575
vt 0.872431 0.214761
vt 0.558173 0.384098
vt 0.087852 0.270951
vt -0.001389 1.001575
vt -0.001141 1.000000
vt -0.000645 1.000000
vt -0.005122 0.998425
vt 0.003249 0.996850
vt 1.002000 1.000000
vt 0.006404 0.998016
vt -0.005456 0.996850
vt 0.005914 1.000000
vt 0.000459 0.996032
vt 0.000508 0.998425
vt -0.002393 1.000000
vt -0.000570 0.995275
vt -0.001897 0.998425
vt 0.000174 1.001575
vt -0.001510 1.003968
vt 0.003455 0.998016
vt -0.000409 1.004725
vt -0.006461 1.003150
vt -0.003063 1.001575
vt 0.001976 0.989682
vt -0.005469 0.998425
vt -0.000248 1.000000
vt 0.000000 1.000000
vt 0.080167 0.242856
vt 0.110613 0.297966
vt 0.147575 0.322863
vt 0.197317 0.344686
vt 0.257928 0.362595
vt 0.327078 0.375903
vt 0.402111 0.384098
vt 0.480142 0.386865
vt 0.633206 0.375903
vt 0.702356 0.362595
vt 0.762967 0.344686
vt 0.812709 0.322863
vt 0.849671 0.297966
vt 0.880117 0.242856
vt 0.849671 0.187746
vt 0.812709 0.162849
vt 0.762967 0.141026
vt 0.702356 0.123117
vt 0.633206 0.109809
vt 0.480142 0.098847
vt 0.402111 0.101614
vt 0.327078 0.109809
vt 0.257928 0.123117
vt 0.197317 0.141026
vt 0.147575 0.162849
vt 0.110613 0.187746
s 0
g off
g Outer_ring.001_Material.001
usemtl Material.001
f 2/1/1 3/2/1 1/3/1
f 4/4/2 5/5/2 3/6/2
f 5/7/3 8/8/3 7/9/3
f 8/10/4 9/11/4 7/12/4
f 10/13/5 11/14/5 9/15/5
f 11/16/6 14/17/6 13/18/6
f 14/19/7 15/20/7 13/21/7
f 16/22/8 17/23/8 15/24/8
f 18/25/9 19/26/9 17/27/9
f 20/28/10 21/29/10 19/30/10
f 21/31/11 24/32/11 23/33/11
f 24/34/12 25/35/12 23/36/12
f 26/37/13 27/38/13 25/39/13
f 27/40/14 30/41/14 29/42/14
f 30/43/15 31/44/15 29/45/15
f 32/46/16 33/47/16 31/48/16
f 34/49/17 35/50/17 33/51/17
f 36/52/18 37/53/18 35/54/18
f 37/55/19 40/56/19 39/57/19
f 40/58/20 41/59/20 39/60/20
f 42/61/21 43/62/21 41/63/21
f 43/64/22 46/65/22 45/66/22
f 46/67/23 47/68/23 45/69/23
f 48/70/24 49/71/24 47/72/24
f 50/73/25 51/74/25 49/75/25
f 52/76/26 53/77/26 51/78/26
f 53/79/27 56/80/27 55/81/27
f 56/82/28 57/83/28 55/84/28
f 58/85/29 59/86/29 57/87/29
f 59/88/30 62/89/30 61/90/30
f 62/91/31 63/92/31 61/93/31
f 64/94/32 1/95/32 63/96/32
f 31/97/33 47/98/33 63/99/33
f 67/2/34 66/1/34 65/3/34
f 69/5/35 68/4/35 67/6/35
f 71/9/36 70/100/36 69/7/36
f 73/11/37 72/10/37 71/12/37
f 75/14/38 74/13/38 73/15/38
f 77/18/39 76/101/39 75/16/39
f 79/20/40 78/19/40 77/21/40
f 81/23/41 80/22/41 79/24/41
f 83/26/42 82/25/42 81/27/42
f 85/29/43 84/28/43 83/30/43
f 87/33/44 86/102/44 85/31/44
f 89/35/45 88/34/45 87/36/45
f 91/38/46 90/37/46 89/39/46
f 93/42/47 92/103/47 91/40/47
f 95/44/48 94/43/48 93/45/48
f 97/47/49 96/46/49 95/48/49
f 99/50/50 98/49/50 97/51/50
f 101/53/51 100/52/51 99/54/51
f 103/57/52 102/104/52 101/55/52
f 105/59/53 104/58/53 103/60/53
f 107/62/54 106/61/54 105/63/54
f 109/66/55 108/105/55 107/64/55
f 111/68/56 110/67/56 109/69/56
f 113/71/57 112/70/57 111/72/57
f 115/74/58 114/73/58 113/75/58
f 117/77/59 116/76/59 115/78/59
f 119/81/60 118/106/60 117/79/60
f 121/83/61 120/82/61 119/84/61
f 123/86/62 122/85/62 121/87/62
f 125/90/63 124/107/63 123/88/63
f 127/92/64 126/91/64 125/93/64
f 65/95/65 128/94/65 127/96/65
f 99/108/66 83/109/66 67/110/66
f 2/1/66 68/111/66 4/111/66
f 4/4/66 70/112/66 6/112/66
f 6/100/66 72/8/66 8/8/66
f 8/10/66 74/113/66 10/113/66
f 12/114/66 74/13/66 76/114/66
f 12/101/66 78/17/66 14/17/66
f 16/115/66 78/19/66 80/115/66
f 16/22/66 82/116/66 18/116/66
f 20/117/66 82/25/66 84/117/66
f 20/28/66 86/118/66 22/118/66
f 22/102/66 88/32/66 24/32/66
f 24/34/66 90/119/66 26/119/66
f 28/120/66 90/37/66 92/120/66
f 28/103/66 94/41/66 30/41/66
f 32/121/66 94/43/66 96/121/66
f 32/46/66 98/122/66 34/122/66
f 34/49/66 100/123/66 36/123/66
f 36/52/66 102/124/66 38/124/66
f 38/104/66 104/56/66 40/56/66
f 40/58/66 106/125/66 42/125/66
f 44/126/66 106/61/66 108/126/66
f 44/105/66 110/65/66 46/65/66
f 48/127/66 110/67/66 112/127/66
f 48/70/66 114/128/66 50/128/66
f 52/129/66 114/73/66 116/129/66
f 52/76/66 118/130/66 54/130/66
f 54/106/66 120/80/66 56/80/66
f 56/82/66 122/131/66 58/131/66
f 60/132/66 122/85/66 124/132/66
f 60/107/66 126/89/66 62/89/66
f 64/133/66 126/91/66 128/133/66
f 64/94/66 66/134/66 2/134/66
f 2/1/1 4/111/1 3/2/1
f 4/4/2 6/112/2 5/5/2
f 5/7/3 6/100/3 8/8/3
f 8/10/4 10/113/4 9/11/4
f 10/13/5 12/114/5 11/14/5
f 11/16/6 12/101/6 14/17/6
f 14/19/7 16/115/7 15/20/7
f 16/22/8 18/116/8 17/23/8
f 18/25/9 20/117/9 19/26/9
f 20/28/10 22/118/10 21/29/10
f 21/31/11 22/102/11 24/32/11
f 24/34/12 26/119/12 25/35/12
f 26/37/13 28/120/13 27/38/13
f 27/40/14 28/103/14 30/41/14
f 30/43/15 32/121/15 31/44/15
f 32/46/16 34/122/16 33/47/16
f 34/49/17 36/123/17 35/50/17
f 36/52/18 38/124/18 37/53/18
f 37/55/19 38/104/19 40/56/19
f 40/58/20 42/125/20 41/59/20
f 42/61/21 44/126/21 43/62/21
f 43/64/22 44/105/22 46/65/22
f 46/67/23 48/127/23 47/68/23
f 48/70/24 50/128/24 49/71/24
f 50/73/25 52/129/25 51/74/25
f 52/76/26 54/130/26 53/77/26
f 53/79/27 54/106/27 56/80/27
f 56/82/28 58/131/28 57/83/28
f 58/85/29 60/132/29 59/86/29
f 59/88/30 60/107/30 62/89/30
f 62/91/31 64/133/31 63/92/31
f 64/94/32 2/134/32 1/95/32
f 63/99/33 1/135/33 3/110/33
f 3/110/33 5/136/33 7/137/33
f 7/137/33 9/138/33 11/139/33
f 11/139/33 13/140/33 15/141/33
f 15/141/33 17/142/33 19/109/33
f 19/109/33 21/143/33 23/144/33
f 23/144/33 25/145/33 27/146/33
f 27/146/33 29/147/33 31/97/33
f 31/97/33 33/148/33 35/108/33
f 35/108/33 37/149/33 39/150/33
f 39/150/33 41/151/33 43/152/33
f 43/152/33 45/153/33 47/98/33
f 47/98/33 49/154/33 51/155/33
f 51/155/33 53/156/33 55/157/33
f 55/157/33 57/158/33 59/159/33
f 59/159/33 61/160/33 63/99/33
f 63/99/33 3/110/33 7/137/33
f 7/137/33 11/139/33 15/141/33
f 15/141/33 19/109/33 23/144/33
f 23/144/33 27/146/33 31/97/33
f 31/97/33 35/108/33 39/150/33
f 39/150/33 43/152/33 47/98/33
f 47/98/33 51/155/33 55/157/33
f 55/157/33 59/159/33 63/99/33
f 63/99/33 7/137/33 15/141/33
f 15/141/33 23/144/33 31/97/33
f 31/97/33 39/150/33 47/98/33
f 47/98/33 55/157/33 63/99/33
f 63/99/33 15/141/33 31/97/33
f 67/2/34 68/111/34 66/1/34
f 69/5/35 70/112/35 68/4/35
f 71/9/36 72/8/36 70/100/36
f 73/11/37 74/113/37 72/10/37
f 75/14/38 76/114/38 74/13/38
f 77/18/39 78/17/39 76/101/39
f 79/20/40 80/115/40 78/19/40
f 81/23/41 82/116/41 80/22/41
f 83/26/42 84/117/42 82/25/42
f 85/29/43 86/118/43 84/28/43
f 87/33/44 88/32/44 86/102/44
f 89/35/45 90/119/45 88/34/45
f 91/38/46 92/120/46 90/37/46
f 93/42/47 94/41/47 92/103/47
f 95/44/48 96/121/48 94/43/48
f 97/47/49 98/122/49 96/46/49
f 99/50/50 100/123/50 98/49/50
f 101/53/51 102/124/51 100/52/51
f 103/57/52 104/56/52 102/104/52
f 105/59/53 106/125/53 104/58/53
f 107/62/54 108/126/54 106/61/54
f 109/66/55 110/65/55 108/105/55
f 111/68/56 112/127/56 110/67/56
f 113/71/57 114/128/57 112/70/57
f 115/74/58 116/129/58 114/73/58
f 117/77/59 118/130/59 116/76/59
f 119/81/60 120/80/60 118/106/60
f 121/83/61 122/131/61 120/82/61
f 123/86/62 124/132/62 122/85/62
f 125/90/63 126/89/63 124/107/63
f 127/92/64 128/133/64 126/91/64
f 65/95/65 66/134/65 128/94/65
f 67/110/66 65/135/66 127/99/66
f 127/99/66 125/160/66 123/159/66
f 123/159/66 121/158/66 119/157/66
f 119/157/66 117/156/66 115/155/66
f 115/155/66 113/154/66 111/98/66
f 111/98/66 109/153/66 107/152/66
f 107/152/66 105/151/66 103/150/66
f 103/150/66 101/149/66 99/108/66
f 99/108/66 97/148/66 95/97/66
f 95/97/66 93/147/66 91/146/66
f 91/146/66 89/145/66 87/144/66
f 87/144/66 85/143/66 83/109/66
f 83/109/66 81/142/66 79/141/66
f 79/141/66 77/140/66 75/139/66
f 75/139/66 73/138/66 71/137/66
f 71/137/66 69/136/66 67/110/66
f 67/110/66 127/99/66 123/159/66
f 123/159/66 119/157/66 115/155/66
f 115/155/66 111/98/66 107/152/66
f 107/152/66 103/150/66 99/108/66
f 99/108/66 95/97/66 91/146/66
f 91/146/66 87/144/66 83/109/66
f 83/109/66 79/141/66 75/139/66
f 75/139/66 71/137/66 67/110/66
f 67/110/66 123/159/66 115/155/66
f 115/155/66 107/152/66 99/108/66
f 99/108/66 91/146/66 83/109/66
f 83/109/66 75/139/66 67/110/66
f 67/110/66 115/155/66 99/108/66
f 2/1/66 66/1/66 68/111/66
f 4/4/66 68/4/66 70/112/66
f 6/100/66 70/100/66 72/8/66
f 8/10/66 72/10/66 74/113/66
f 12/114/66 10/13/66 74/13/66
f 12/101/66 76/101/66 78/17/66
f 16/115/66 14/19/66 78/19/66
f 16/22/66 80/22/66 82/116/66
f 20/117/66 18/25/66 82/25/66
f 20/28/66 84/28/66 86/118/66
f 22/102/66 86/102/66 88/32/66
f 24/34/66 88/34/66 90/119/66
f 28/120/66 26/37/66 90/37/66
f 28/103/66 92/103/66 94/41/66
f 32/121/66 30/43/66 94/43/66
f 32/46/66 96/46/66 98/122/66
f 34/49/66 98/49/66 100/123/66
f 36/52/66 100/52/66 102/124/66
f 38/104/66 102/104/66 104/56/66
f 40/58/66 104/58/66 106/125/66
f 44/126/66 42/61/66 106/61/66
f 44/105/66 108/105/66 110/65/66
f 48/127/66 46/67/66 110/67/66
f 48/70/66 112/70/66 114/128/66
f 52/129/66 50/73/66 114/73/66
f 52/76/66 116/76/66 118/130/66
f 54/106/66 118/106/66 120/80/66
f 56/82/66 120/82/66 122/131/66
f 60/132/66 58/85/66 122/85/66
f 60/107/66 124/107/66 126/89/66
f 64/133/66 62/91/66 126/91/66
f 64/94/66 128/94/66 66/134/66
